<?xml version="1.0" encoding="UTF-8" standalone="no"?>
<!DOCTYPE svg PUBLIC "-//W3C//DTD SVG 1.1//EN"
 "http://www.w3.org/Graphics/SVG/1.1/DTD/svg11.dtd">
<!-- Generated by graphviz version 2.38.0 (20140413.2041)
 -->
<!-- Title: G Pages: 1 -->
<svg width="239pt" height="96pt"
 viewBox="0.00 0.00 239.00 96.00" xmlns="http://www.w3.org/2000/svg" xmlns:xlink="http://www.w3.org/1999/xlink">
<g id="graph0" class="graph" transform="scale(1 1) rotate(0) translate(4 92)">
<title>G</title>
<polygon fill="white" stroke="none" points="-4,4 -4,-92 235,-92 235,4 -4,4"/>
<g id="clust1" class="cluster"><title>cluster_Global</title>
<path fill="none" stroke="gray" d="M130,-8C130,-8 211,-8 211,-8 217,-8 223,-14 223,-20 223,-20 223,-68 223,-68 223,-74 217,-80 211,-80 211,-80 130,-80 130,-80 124,-80 118,-74 118,-68 118,-68 118,-20 118,-20 118,-14 124,-8 130,-8"/>
<text text-anchor="middle" x="170.5" y="-67.2" font-family="Times,serif" font-size="11.00" fill="gray">Global</text>
</g>
<!-- \\Clinic_Task -->
<g id="node1" class="node"><title>\\Clinic_Task</title>
<polygon fill="none" stroke="black" points="215,-52 126,-52 126,-16 215,-16 215,-52"/>
<text text-anchor="middle" x="170.5" y="-31.2" font-family="Courier,monospace" font-size="11.00">Clinic_Task</text>
</g>
<!-- \\adb -->
<g id="node2" class="node"><title>\\adb</title>
<ellipse fill="none" stroke="black" cx="27" cy="-34" rx="27" ry="18"/>
<text text-anchor="middle" x="27" y="-30.3" font-family="Times,serif" font-size="14.00" fill="gray">\adb</text>
</g>
<!-- \\Clinic_Task&#45;&gt;\\adb -->
<g id="edge1" class="edge"><title>\\Clinic_Task&#45;&gt;\\adb</title>
<path fill="none" stroke="black" d="M125.891,-34C106.25,-34 83.3194,-34 64.591,-34"/>
<polygon fill="none" stroke="black" points="64.387,-30.5001 54.3869,-34 64.3869,-37.5001 64.387,-30.5001"/>
</g>
</g>
</svg>
