<?xml version="1.0" encoding="UTF-8" standalone="no"?>
<!DOCTYPE svg PUBLIC "-//W3C//DTD SVG 1.1//EN"
 "http://www.w3.org/Graphics/SVG/1.1/DTD/svg11.dtd">
<!-- Generated by graphviz version 2.38.0 (20140413.2041)
 -->
<!-- Title: G Pages: 1 -->
<svg width="255pt" height="366pt"
 viewBox="0.00 0.00 255.00 366.00" xmlns="http://www.w3.org/2000/svg" xmlns:xlink="http://www.w3.org/1999/xlink">
<g id="graph0" class="graph" transform="scale(1 1) rotate(0) translate(4 362)">
<title>G</title>
<polygon fill="white" stroke="none" points="-4,4 -4,-362 251,-362 251,4 -4,4"/>
<g id="clust1" class="cluster"><title>cluster_Global</title>
<path fill="none" stroke="gray" d="M20,-8C20,-8 227,-8 227,-8 233,-8 239,-14 239,-20 239,-20 239,-338 239,-338 239,-344 233,-350 227,-350 227,-350 20,-350 20,-350 14,-350 8,-344 8,-338 8,-338 8,-20 8,-20 8,-14 14,-8 20,-8"/>
<text text-anchor="middle" x="123.5" y="-337.2" font-family="Times,serif" font-size="11.00" fill="gray">Global</text>
</g>
<!-- \\adb -->
<g id="node1" class="node"><title>\\adb</title>
<polygon fill="none" stroke="black" points="70,-187 16,-187 16,-151 70,-151 70,-187"/>
<text text-anchor="middle" x="43" y="-166.2" font-family="Courier,monospace" font-size="11.00">adb</text>
</g>
<!-- \\admin -->
<g id="node2" class="node"><title>\\admin</title>
<polygon fill="none" stroke="black" points="213.5,-322 159.5,-322 159.5,-286 213.5,-286 213.5,-322"/>
<text text-anchor="middle" x="186.5" y="-301.2" font-family="Courier,monospace" font-size="11.00">admin</text>
</g>
<!-- \\admin&#45;&gt;\\adb -->
<g id="edge1" class="edge"><title>\\admin&#45;&gt;\\adb</title>
<path fill="none" stroke="black" d="M159.379,-289.429C153.445,-285.678 147.326,-281.438 142,-277 112.204,-252.172 82.976,-218.386 64.3058,-195.253"/>
<polygon fill="none" stroke="black" points="66.8944,-192.885 57.9234,-187.249 61.4213,-197.249 66.8944,-192.885"/>
</g>
<!-- \\clinic -->
<g id="node3" class="node"><title>\\clinic</title>
<polygon fill="none" stroke="black" points="214.5,-268 158.5,-268 158.5,-232 214.5,-232 214.5,-268"/>
<text text-anchor="middle" x="186.5" y="-247.2" font-family="Courier,monospace" font-size="11.00">clinic</text>
</g>
<!-- \\clinic&#45;&gt;\\adb -->
<g id="edge2" class="edge"><title>\\clinic&#45;&gt;\\adb</title>
<path fill="none" stroke="black" d="M158.217,-234.382C135.715,-221.501 103.633,-203.136 79.1972,-189.148"/>
<polygon fill="none" stroke="black" points="80.6596,-185.952 70.2421,-184.022 77.1819,-192.028 80.6596,-185.952"/>
</g>
<!-- \\clinic_task -->
<g id="node4" class="node"><title>\\clinic_task</title>
<polygon fill="none" stroke="black" points="231,-214 142,-214 142,-178 231,-178 231,-214"/>
<text text-anchor="middle" x="186.5" y="-193.2" font-family="Courier,monospace" font-size="11.00">clinic_task</text>
</g>
<!-- \\clinic_task&#45;&gt;\\adb -->
<g id="edge3" class="edge"><title>\\clinic_task&#45;&gt;\\adb</title>
<path fill="none" stroke="black" d="M141.891,-187.679C122.158,-183.914 99.106,-179.515 80.3299,-175.932"/>
<polygon fill="none" stroke="black" points="80.8657,-172.471 70.3869,-174.035 79.5537,-179.347 80.8657,-172.471"/>
</g>
<!-- \\nurses -->
<g id="node5" class="node"><title>\\nurses</title>
<polygon fill="none" stroke="black" points="214.5,-160 158.5,-160 158.5,-124 214.5,-124 214.5,-160"/>
<text text-anchor="middle" x="186.5" y="-139.2" font-family="Courier,monospace" font-size="11.00">nurses</text>
</g>
<!-- \\nurses&#45;&gt;\\adb -->
<g id="edge4" class="edge"><title>\\nurses&#45;&gt;\\adb</title>
<path fill="none" stroke="black" d="M158.217,-147.206C136.012,-151.443 104.479,-157.46 80.17,-162.098"/>
<polygon fill="none" stroke="black" points="79.4088,-158.68 70.2421,-163.993 80.7209,-165.556 79.4088,-158.68"/>
</g>
<!-- \\supervisors -->
<g id="node6" class="node"><title>\\supervisors</title>
<polygon fill="none" stroke="black" points="231,-106 142,-106 142,-70 231,-70 231,-106"/>
<text text-anchor="middle" x="186.5" y="-85.2" font-family="Courier,monospace" font-size="11.00">supervisors</text>
</g>
<!-- \\supervisors&#45;&gt;\\adb -->
<g id="edge5" class="edge"><title>\\supervisors&#45;&gt;\\adb</title>
<path fill="none" stroke="black" d="M153.745,-106.178C131.589,-118.861 102.014,-135.79 79.1489,-148.879"/>
<polygon fill="none" stroke="black" points="77.3708,-145.864 70.4309,-153.87 80.8484,-151.939 77.3708,-145.864"/>
</g>
<!-- \\user -->
<g id="node7" class="node"><title>\\user</title>
<polygon fill="none" stroke="black" points="213.5,-52 159.5,-52 159.5,-16 213.5,-16 213.5,-52"/>
<text text-anchor="middle" x="186.5" y="-31.2" font-family="Courier,monospace" font-size="11.00">user</text>
</g>
<!-- \\user&#45;&gt;\\adb -->
<g id="edge6" class="edge"><title>\\user&#45;&gt;\\adb</title>
<path fill="none" stroke="black" d="M159.379,-48.5707C153.445,-52.3215 147.326,-56.5618 142,-61 112.204,-85.8284 82.976,-119.614 64.3058,-142.747"/>
<polygon fill="none" stroke="black" points="61.4213,-140.751 57.9234,-150.751 66.8944,-145.115 61.4213,-140.751"/>
</g>
</g>
</svg>
